<svg width="40" height="40" viewBox="0 0 40 40" fill="none" xmlns="http://www.w3.org/2000/svg">
<g clip-path="url(#clip0_61_7753)">
<path d="M18 29.625C18.625 29.625 19.1875 30.125 19.1875 30.8125C19.1875 31.4375 18.6875 32 18 32C17.375 32 16.8125 31.5 16.8125 30.8125C16.8125 30.125 17.375 29.625 18 29.625ZM36.375 22.375C35.75 22.375 35.1875 21.875 35.1875 21.1875C35.1875 20.5625 35.6875 20 36.375 20C37 20 37.5625 20.5 37.5625 21.1875C37.5625 21.8125 37 22.375 36.375 22.375ZM36.375 17.5625C34.375 17.5625 32.75 19.1875 32.75 21.1875C32.75 21.5625 32.8125 21.9375 32.9375 22.3125L21 28.6875C20.3125 27.6875 19.1875 27.125 18 27.125C16.625 27.125 15.375 27.9375 14.75 29.125L4.00005 23.5C2.87505 22.875 2.00005 21.0625 2.12505 19.3125C2.18755 18.4375 2.50005 17.75 2.93755 17.5C3.25005 17.3125 3.56255 17.375 4.00005 17.5625L4.06255 17.625C6.93755 19.125 16.25 24 16.625 24.1875C17.25 24.4375 17.5625 24.5625 18.625 24.0625L37.875 14.0625C38.1875 13.9375 38.5 13.6875 38.5 13.25C38.5 12.6875 37.9375 12.4375 37.9375 12.4375C36.8125 11.9375 35.125 11.125 33.5 10.375C30 8.75003 26 6.87503 24.25 5.93753C22.75 5.12503 21.5 5.81253 21.3125 5.93753L20.875 6.12503C12.9375 10.125 2.43755 15.3125 1.81255 15.6875C0.750047 16.3125 0.0625468 17.625 4.68455e-05 19.25C-0.124953 21.8125 1.18755 24.5 3.06255 25.4375L14.4375 31.3125C14.6875 33.0625 16.25 34.4375 18 34.4375C20 34.4375 21.5625 32.875 21.625 30.875L34.125 24.125C34.75 24.625 35.5625 24.875 36.375 24.875C38.375 24.875 40 23.25 40 21.25C40 19.1875 38.375 17.5625 36.375 17.5625Z" fill="#4285FD"/>
</g>
<defs>
<clipPath id="clip0_61_7753">
<rect width="40" height="40" fill="white"/>
</clipPath>
</defs>
</svg>
