<svg width="32" height="26" viewBox="0 0 32 26" fill="none" xmlns="http://www.w3.org/2000/svg">
<path d="M9.5536 2.16467H7.04645C4.15664 2.16467 2.63916 3.40935 2.63916 5.76884V7.82527C2.63916 10.1848 4.15664 11.4294 7.03326 11.4294H9.5404C12.417 11.4294 13.9345 10.1848 13.9345 7.82527V5.76884C13.9477 3.40935 12.4302 2.16467 9.5536 2.16467Z" fill="white"/>
<path opacity="0.4" d="M24.6359 2.16467H22.1287C19.2521 2.16467 17.7346 3.40935 17.7346 5.76884V7.82527C17.7346 10.1848 19.2521 11.4294 22.1287 11.4294H24.6359C27.5125 11.4294 29.03 10.1848 29.03 7.82527V5.76884C29.03 3.40935 27.5125 2.16467 24.6359 2.16467Z" fill="white"/>
<path d="M24.6359 14.5357H22.1287C19.2521 14.5357 17.7346 15.7804 17.7346 18.1399V20.1963C17.7346 22.5558 19.2521 23.8005 22.1287 23.8005H24.6359C27.5125 23.8005 29.03 22.5558 29.03 20.1963V18.1399C29.03 15.7804 27.5125 14.5357 24.6359 14.5357Z" fill="white"/>
<path opacity="0.4" d="M9.5536 14.5357H7.04645C4.15664 14.5357 2.63916 15.7804 2.63916 18.1399V20.1963C2.63916 22.5666 4.15664 23.8113 7.03326 23.8113H9.5404C12.417 23.8113 13.9345 22.5666 13.9345 20.2071V18.1507C13.9477 15.7804 12.4302 14.5357 9.5536 14.5357Z" fill="white"/>
</svg>
