<svg width="40" height="40" viewBox="0 0 40 40" fill="none" xmlns="http://www.w3.org/2000/svg">
<path d="M31.5515 9.40239C29.4269 8.42756 27.1486 7.70934 24.7666 7.29799C24.7232 7.29005 24.6799 7.30989 24.6575 7.34957C24.3645 7.8707 24.0399 8.55056 23.8127 9.08493C21.2506 8.70136 18.7017 8.70136 16.1922 9.08493C15.9648 8.53869 15.6285 7.8707 15.3342 7.34957C15.3118 7.31122 15.2685 7.29138 15.2251 7.29799C12.8444 7.70803 10.5661 8.42624 8.44023 9.40239C8.42182 9.41033 8.40605 9.42357 8.39558 9.44075C4.0742 15.8968 2.89039 22.1942 3.47112 28.4135C3.47375 28.4439 3.49083 28.473 3.51448 28.4915C6.36561 30.5853 9.12741 31.8564 11.8379 32.699C11.8813 32.7122 11.9273 32.6963 11.9549 32.6606C12.5961 31.785 13.1676 30.8618 13.6576 29.8909C13.6866 29.834 13.659 29.7666 13.5999 29.7441C12.6933 29.4002 11.83 28.9809 10.9997 28.5047C10.934 28.4664 10.9287 28.3724 10.9892 28.3275C11.1639 28.1965 11.3387 28.0603 11.5055 27.9227C11.5357 27.8976 11.5778 27.8923 11.6133 27.9082C17.0685 30.3988 22.9744 30.3988 28.3653 27.9082C28.4007 27.891 28.4428 27.8963 28.4743 27.9214C28.6412 28.059 28.816 28.1965 28.992 28.3275C29.0524 28.3724 29.0485 28.4664 28.9828 28.5047C28.1524 28.9901 27.2892 29.4002 26.3813 29.7428C26.3222 29.7653 26.2959 29.834 26.3248 29.8909C26.8254 30.8604 27.3969 31.7837 28.0263 32.6593C28.0526 32.6963 28.0999 32.7122 28.1432 32.699C30.8669 31.8564 33.6287 30.5853 36.4798 28.4915C36.5048 28.473 36.5206 28.4452 36.5232 28.4148C37.2182 21.2246 35.3591 14.9789 31.5948 9.44207C31.5856 9.42357 31.5699 9.41033 31.5515 9.40239ZM14.4723 24.6266C12.8299 24.6266 11.4766 23.1187 11.4766 21.2669C11.4766 19.4152 12.8037 17.9073 14.4723 17.9073C16.154 17.9073 17.4942 19.4284 17.4679 21.2669C17.4679 23.1187 16.1409 24.6266 14.4723 24.6266ZM25.5483 24.6266C23.906 24.6266 22.5527 23.1187 22.5527 21.2669C22.5527 19.4152 23.8797 17.9073 25.5483 17.9073C27.2301 17.9073 28.5702 19.4284 28.544 21.2669C28.544 23.1187 27.2301 24.6266 25.5483 24.6266Z" fill="#618EFF"/>
</svg>
