<svg width="319" height="451" viewBox="0 0 319 451" fill="none" xmlns="http://www.w3.org/2000/svg">
<mask id="path-1-outside-1_10_6465" maskUnits="userSpaceOnUse" x="-147" y="0" width="466" height="451" fill="black">
<rect fill="white" x="-147" width="466" height="451"/>
<path d="M318 225.5C318 349.488 214.13 450 86 450C-42.1301 450 -146 349.488 -146 225.5C-146 101.512 -42.1301 1 86 1C214.13 1 318 101.512 318 225.5ZM-53.2 225.5C-53.2 299.893 9.12196 360.2 86 360.2C162.878 360.2 225.2 299.893 225.2 225.5C225.2 151.107 162.878 90.8 86 90.8C9.12196 90.8 -53.2 151.107 -53.2 225.5Z"/>
</mask>
<path d="M318 225.5C318 349.488 214.13 450 86 450C-42.1301 450 -146 349.488 -146 225.5C-146 101.512 -42.1301 1 86 1C214.13 1 318 101.512 318 225.5ZM-53.2 225.5C-53.2 299.893 9.12196 360.2 86 360.2C162.878 360.2 225.2 299.893 225.2 225.5C225.2 151.107 162.878 90.8 86 90.8C9.12196 90.8 -53.2 151.107 -53.2 225.5Z" stroke="#0A94F1" stroke-width="2" mask="url(#path-1-outside-1_10_6465)"/>
</svg>
