<svg width="60" height="60" viewBox="0 0 60 60" fill="none" xmlns="http://www.w3.org/2000/svg">
<path d="M7.66558 0.911865H51.0676C54.5928 0.911865 57.4506 2.95313 57.4506 5.47113V40.8899C57.4506 43.4079 54.5928 45.4491 51.0676 45.4491H7.66558C4.14036 45.4491 1.28259 43.4079 1.28259 40.8899V5.47113C1.28259 2.95313 4.14036 0.911865 7.66558 0.911865Z" stroke="url(#paint0_linear_9_6396)" stroke-width="1.2766"/>
<path d="M8.53738 3.3251L39.1444 13.4979C40.945 14.0963 42.0964 15.3862 42.0964 16.8047V53.5076C42.0964 56.1469 38.2936 57.9123 34.9168 56.8407L4.30978 47.1275C2.4654 46.542 1.27673 45.2357 1.27673 43.7942V6.63204C1.27673 3.96528 5.15242 2.20006 8.53738 3.3251Z" fill="#A9B5C9"/>
<defs>
<linearGradient id="paint0_linear_9_6396" x1="57.4506" y1="12.766" x2="33.8892" y2="29.259" gradientUnits="userSpaceOnUse">
<stop stop-color="#1E293B"/>
<stop offset="1" stop-color="#F7FAFF"/>
</linearGradient>
</defs>
</svg>
