<svg width="60" height="60" viewBox="0 0 60 60" fill="none" xmlns="http://www.w3.org/2000/svg">
<g clip-path="url(#clip0_8_6840)">
<path d="M37.5 0H22.5C10.0736 0 0 10.0736 0 22.5V37.5C0 49.9264 10.0736 60 22.5 60H37.5C49.9264 60 60 49.9264 60 37.5V22.5C60 10.0736 49.9264 0 37.5 0Z" fill="url(#paint0_radial_8_6840)"/>
<path d="M48.3141 40.9129C44.5905 40.9129 41.1533 37.1835 39.3774 34.8886C37.6015 37.1835 34.1644 40.9129 30.4408 40.9129C26.7172 40.9129 23.2801 37.1835 21.5042 34.8886C19.8429 37.1835 16.4058 40.9129 12.6821 40.9129C11.8802 40.9129 11.25 40.2818 11.25 39.4785C11.25 38.6753 11.8802 38.0441 12.6821 38.0441C15.661 38.0441 19.3273 33.2821 20.3585 31.6182C20.6449 31.2166 21.1032 30.9297 21.5615 30.9297C22.0198 30.9297 22.5353 31.1592 22.7645 31.6182C23.7956 33.2821 27.4619 38.0441 30.4408 38.0441C33.4197 38.0441 37.086 33.2821 38.1172 31.6182C38.4036 31.2166 38.8619 30.9297 39.3202 30.9297C39.8357 30.9297 40.294 31.1592 40.5232 31.6182C41.5543 33.2821 45.2206 38.0441 48.1995 38.0441C49.0015 38.0441 49.6316 38.6753 49.6316 39.4785C49.6316 40.2818 49.1161 40.9129 48.3141 40.9129Z" fill="white"/>
<path d="M48.3141 49.0601C44.5905 49.0601 41.1533 45.3308 39.3774 43.0358C37.6015 45.3308 34.1644 49.0601 30.4408 49.0601C26.7172 49.0601 23.2801 45.3308 21.5042 43.0358C19.8429 45.3308 16.4058 49.0601 12.6821 49.0601C11.8802 49.0601 11.25 48.429 11.25 47.6257C11.25 46.8226 11.8802 46.1915 12.6821 46.1915C15.661 46.1915 19.3273 41.4293 20.3585 39.7655C20.6449 39.3638 21.1032 39.077 21.5615 39.077C22.0198 39.077 22.5353 39.3065 22.7645 39.7655C23.7956 41.4293 27.4619 46.1915 30.4408 46.1915C33.4197 46.1915 37.086 41.4293 38.1172 39.7655C38.4036 39.3638 38.8619 39.077 39.3202 39.077C39.8357 39.077 40.294 39.3065 40.5232 39.7655C41.5543 41.4293 45.2206 46.1915 48.1995 46.1915C49.0015 46.1915 49.6316 46.8226 49.6316 47.6257C49.6316 48.429 49.1161 49.0601 48.3141 49.0601Z" fill="white"/>
<path d="M13.6559 34.3722C12.9684 34.3722 12.3956 33.9132 12.2238 33.2247C12.0519 32.0772 11.9374 30.9297 11.9374 29.8396C11.9374 19.5696 20.2438 11.2503 30.498 11.2503C40.7522 11.1929 49.0587 19.5696 49.0587 29.8396C49.0587 30.9871 48.9441 32.0772 48.7722 33.1674C48.6577 33.9706 47.9129 34.487 47.111 34.3149C46.3089 34.2001 45.7934 33.4542 45.9653 32.651C46.1371 31.733 46.1944 30.7576 46.1944 29.8396C46.1944 21.1761 39.1482 14.119 30.498 14.119C21.8478 14.119 14.8016 21.1187 14.8016 29.8396C14.8016 30.815 14.9162 31.7904 15.088 32.7084C15.2026 33.5116 14.7443 34.2575 13.9423 34.3722C13.8278 34.3722 13.7132 34.3722 13.6559 34.3722Z" fill="white"/>
</g>
<defs>
<radialGradient id="paint0_radial_8_6840" cx="0" cy="0" r="1" gradientUnits="userSpaceOnUse" gradientTransform="translate(-1.0223e-06 6.94445) rotate(44.2296) scale(69.0261 69.1356)">
<stop stop-color="#0058DD"/>
<stop offset="1" stop-color="#67C8FF"/>
</radialGradient>
<clipPath id="clip0_8_6840">
<rect width="60" height="60" fill="white"/>
</clipPath>
</defs>
</svg>
