<svg width="60" height="60" viewBox="0 0 60 60" fill="none" xmlns="http://www.w3.org/2000/svg">
<g clip-path="url(#clip0_8_6837)">
<path d="M30 60C46.5685 60 60 46.5685 60 30C60 13.4315 46.5685 0 30 0C13.4315 0 0 13.4315 0 30C0 46.5685 13.4315 60 30 60Z" fill="#2E98F1"/>
<path d="M42.105 43.054C39.6746 47.2306 35.1666 50 30 50C24.8334 50 20.3254 47.2306 17.9308 43.1208L17.895 43.054C16.7037 41.0618 16 38.6658 16 36.1086C16 33.5514 16.7037 31.1554 17.9311 29.0976L17.895 29.1632L28.5416 10.8368C28.8344 10.3336 29.3776 10 30 10C30.6224 10 31.1656 10.3336 31.454 10.8287L31.4584 10.8368L42.105 29.1632C43.2964 31.1554 44 33.5514 44 36.1086C44 38.6658 43.2964 41.0618 42.0688 43.1196L42.105 43.054ZM32.9992 19.5555L30.7292 15.648C30.5828 15.3964 30.3112 15.2296 30 15.2296C29.6888 15.2296 29.4172 15.3964 29.273 15.644L29.2708 15.648L20.538 30.68C19.6074 32.2356 19.0577 34.1066 19.0577 36.1036C19.0577 37.3414 19.2689 38.5308 19.6579 39.639L19.6347 39.5628C19.7594 38.9974 19.9132 38.5098 20.1042 38.0406L20.0814 38.1042C21.2876 35.0788 24.015 32.7442 28.1896 31.165C31.0594 30.083 32.8914 28.4918 33.6358 26.435C34.5946 23.7848 33.5932 20.8942 32.9992 19.5555ZM36.8698 26.2184L36.859 26.279C36.7692 26.696 36.651 27.1024 36.5272 27.4318C35.4726 30.371 33.0348 32.5796 29.2822 33.9942C25.9622 35.251 23.8296 36.996 22.9438 39.1818L22.961 39.13C22.6542 39.9426 22.4866 40.8216 22.4866 41.739C22.4866 42.723 22.6794 43.6628 23.0116 44.4732L22.9952 44.46C24.8864 46.0242 27.3284 46.9668 29.9946 46.9668C34.0344 46.9668 37.5596 44.8026 39.462 41.5382L39.4338 41.5894C40.3932 39.9808 40.9434 38.108 40.9434 36.109C40.9434 34.1102 40.3932 32.2374 39.462 30.68L36.87 26.2184H36.8698Z" fill="white"/>
</g>
<defs>
<clipPath id="clip0_8_6837">
<rect width="60" height="60" fill="white"/>
</clipPath>
</defs>
</svg>
