<svg width="40" height="40" viewBox="0 0 40 40" fill="none" xmlns="http://www.w3.org/2000/svg">
<path d="M33.2542 13.2001C33.2745 13.494 33.2745 13.7878 33.2745 14.0844C33.2745 23.1209 26.3952 33.5427 13.8161 33.5427V33.5373C10.1003 33.5427 6.46155 32.4783 3.33337 30.4714C3.8737 30.5364 4.41672 30.5689 4.96111 30.5703C8.04053 30.573 11.0319 29.5398 13.4546 27.6371C10.5282 27.5816 7.96199 25.6736 7.06552 22.888C8.09064 23.0857 9.1469 23.0451 10.1531 22.7702C6.9626 22.1256 4.66725 19.3224 4.66725 16.0669C4.66725 16.0372 4.66725 16.0087 4.66725 15.9803C5.61789 16.5098 6.68228 16.8036 7.77105 16.8361C4.7661 14.8279 3.83984 10.8303 5.65445 7.70484C9.12659 11.9773 14.2495 14.5746 19.7488 14.8495C19.1977 12.4743 19.9506 9.98529 21.7273 8.31558C24.4817 5.72637 28.8138 5.85908 31.403 8.61214C32.9346 8.31016 34.4025 7.74817 35.7459 6.95191C35.2353 8.53495 34.1669 9.87966 32.7396 10.7342C34.0951 10.5744 35.4195 10.2114 36.6667 9.65758C35.7486 11.0334 34.5921 12.2319 33.2542 13.2001Z" fill="#618EFF"/>
</svg>
